<?xml version="1.0" encoding="UTF-8"?>
<!-- Created with Inkscape (http://www.inkscape.org/) -->
<svg version="1.1" viewBox="0 0 100 100" xmlns="http://www.w3.org/2000/svg">
 <defs>
  <radialGradient id="radialGradient878" cx="125" cy="212" r="5" gradientTransform="translate(-90 65)" gradientUnits="userSpaceOnUse">
   <stop stop-color="#fff" offset="0"/>
   <stop stop-color="#c0c0c0" offset="1"/>
  </radialGradient>
 </defs>
 <g transform="translate(0 -197)">
  <g transform="matrix(1.125 0 0 1.1504 -.625 -50.66)">
   <path d="m5 292h60l20-20v-35h-3.5v-6.5h-15v-5h-53v23l-2 2h-3v3l-3.5 3.5z" fill="none" stroke="#fff" stroke-width="8.7903"/>
   <g stroke-width=".87903">
    <rect x="25" y="237" width="60" height="35" fill="#cdaa7d"/>
    <path d="m5 292 20-20v-35l-20 20z" fill="#8b6914"/>
    <g fill="#fff" stroke="#000" stroke-linecap="round" stroke-width="2.6371">
     <rect x="30" y="232" width="50" height="30"/>
     <rect x="25" y="237" width="50" height="30"/>
     <rect x="20" y="242" width="50" height="30"/>
    </g>
    <rect x="15" y="227" width="50" height="30" fill="#fff" stroke="#000" stroke-linecap="round" stroke-width="2.6371"/>
    <g stroke-width=".23258" aria-label="005.72">
     <path d="m29.9 234.67q0-0.73312-0.2701-1.1238-0.2701-0.3955-0.77652-0.3955-0.51125 0-0.78135 0.3955-0.2701 0.39067-0.2701 1.1238 0 0.73311 0.2701 1.1286 0.2701 0.39068 0.78135 0.39068 0.50643 0 0.77652-0.39068 0.2701-0.3955 0.2701-1.1286zm1.1817 0q0 0.52572-0.14469 0.97427-0.13987 0.44855-0.41961 0.77653-0.27974 0.32797-0.69935 0.51607-0.41479 0.1881-0.96463 0.1881-0.54019 0-0.95498-0.1881-0.41479-0.1881-0.69935-0.51607-0.28456-0.32798-0.43408-0.77653-0.14469-0.44855-0.14469-0.97427t0.14469-0.97427q0.14952-0.44856 0.43408-0.77653 0.28456-0.3328 0.69935-0.51607 0.41479-0.18811 0.95498-0.18811 0.54984 0 0.96463 0.18811 0.41961 0.18327 0.69935 0.51607 0.27974 0.32797 0.41961 0.77653 0.14469 0.44855 0.14469 0.97427z"/>
     <path d="m34.994 234.67q0-0.73312-0.2701-1.1238-0.2701-0.3955-0.77652-0.3955-0.51125 0-0.78135 0.3955-0.2701 0.39067-0.2701 1.1238 0 0.73311 0.2701 1.1286 0.2701 0.39068 0.78135 0.39068 0.50643 0 0.77652-0.39068 0.2701-0.3955 0.2701-1.1286zm1.1817 0q0 0.52572-0.14469 0.97427-0.13987 0.44855-0.41961 0.77653-0.27974 0.32797-0.69935 0.51607-0.41479 0.1881-0.96463 0.1881-0.54019 0-0.95498-0.1881-0.41479-0.1881-0.69936-0.51607-0.28456-0.32798-0.43408-0.77653-0.14469-0.44855-0.14469-0.97427t0.14469-0.97427q0.14952-0.44856 0.43408-0.77653 0.28456-0.3328 0.69936-0.51607 0.41479-0.18811 0.95498-0.18811 0.54984 0 0.96463 0.18811 0.41961 0.18327 0.69935 0.51607 0.27974 0.32797 0.41961 0.77653 0.14469 0.44855 0.14469 0.97427z"/>
     <path d="m38.35 234.85q0.13505-5e-3 0.23633-5e-3 0.56431 0 0.99357 0.14469 0.42926 0.13987 0.71382 0.40514 0.28456 0.26045 0.42926 0.63184 0.14469 0.36655 0.14469 0.8151 0 0.45338-0.16881 0.84405-0.16399 0.3955-0.48714 0.68489t-0.79582 0.45337q-0.47267 0.16399-1.0804 0.16399-0.40032 0-0.75723-0.0772t-0.65112-0.19775v-0.99839q0.36656 0.15434 0.69453 0.22187 0.32797 0.0723 0.63183 0.0723 0.38585 0 0.65595-0.0868 0.2701-0.0868 0.44373-0.24116 0.17363-0.14952 0.2508-0.36173 0.08199-0.2074 0.08199-0.45338 0-0.26527-0.08682-0.46784-0.08682-0.2074-0.27974-0.34727-0.1881-0.14469-0.48231-0.21704-0.29421-0.0724-0.70418-0.0724-0.22669 0-0.48714 0.0241-0.25563 0.0193-0.55466 0.0675l0.49678-3.5305h3.2749v1.0418h-2.3006z"/>
     <path d="m42.132 235.71h1.2974v1.2878h-1.2974z"/>
     <path d="m44.514 233.37v-1.0418h4.172v0.78135l-2.7299 5.7588h-1.172l2.6045-5.4984z"/>
     <path d="m52.994 233.75q0 0.34726-0.14469 0.6463-0.13987 0.29903-0.39067 0.57395-0.24598 0.27492-0.58842 0.54019-0.34244 0.26045-0.74276 0.53537v0.0193q0.66559-0.0386 0.98874-0.0386h1.2637v0.96945h-4.0852v-0.69936q0.50643-0.34726 0.96463-0.68006 0.4582-0.33762 0.80064-0.64148 0.34727-0.30868 0.54984-0.59807 0.20257-0.28938 0.20257-0.56913 0-0.16881-0.0627-0.28456-0.0627-0.11576-0.17846-0.1881-0.11093-0.0772-0.26527-0.11094-0.14952-0.0338-0.32797-0.0338-0.34727 0-0.76688 0.11093-0.41961 0.11094-0.86816 0.32798v-0.96945q0.15434-0.082 0.34727-0.15917 0.19775-0.082 0.42444-0.14469 0.22669-0.0675 0.48231-0.10611 0.26045-0.0434 0.53537-0.0434 0.40997 0 0.75241 0.10129 0.34244 0.10129 0.58842 0.29903 0.24598 0.19293 0.38103 0.48232 0.13987 0.28456 0.13987 0.66077z"/>
    </g>
    <rect x="10" y="252" width="50" height="30" fill="#fff" stroke="#000" stroke-linecap="round" stroke-width="2.6371"/>
    <g stroke-width=".87903">
     <rect x="5" y="257" width="60" height="35" fill="#cdaa7d"/>
     <circle cx="35" cy="277" r="5" fill="url(#radialGradient878)" stroke="#000" stroke-linecap="round" stroke-width=".87903"/>
    </g>
    <path d="m65 292 20-20v-35l-20 20z" fill="#8b6914"/>
   </g>
  </g>
 </g>
</svg>
