<?xml version="1.0" encoding="utf-8"?>
<!-- Svg Vector Icons : http://www.onlinewebfonts.com/icon -->
<!DOCTYPE svg PUBLIC "-//W3C//DTD SVG 1.1//EN" "http://www.w3.org/Graphics/SVG/1.1/DTD/svg11.dtd">
<svg version="1.1" xmlns="http://www.w3.org/2000/svg" xmlns:xlink="http://www.w3.org/1999/xlink" x="0px" y="0px" viewBox="0 0 1000 1000" enable-background="new 0 0 1000 1000" xml:space="preserve">
<metadata> Svg Vector Icons : http://www.onlinewebfonts.com/icon </metadata>
<g><path d="M234.6,788c6.8,0,13.5-2.6,18.7-7.8l193.6-193.6l87.4,87.4c0,0,0,0,0,0c4.5,4.5,10.3,7.1,16.2,7.6c0.8,0.1,1.7,0.1,2.5,0.1c1.7,0,3.4-0.2,5.1-0.5c5-1,9.8-3.4,13.7-7.3L738.9,507v42.1c0,14.6,11.8,26.5,26.5,26.5c14.6,0,26.5-11.8,26.5-26.5V443c0-14.6-11.8-26.5-26.5-26.5c-1,0-2,0.1-2.9,0.2H659.2c-14.6,0-26.5,11.8-26.5,26.5c0,14.6,11.8,26.5,26.5,26.5h42.3L553.1,618l-87.4-87.4c0,0,0,0,0,0c-10.3-10.3-27.1-10.3-37.4,0L215.9,742.8c-10.3,10.3-10.3,27.1,0,37.4C221.1,785.4,227.9,788,234.6,788z"/><path d="M121.3,143.4c0-44.4,36.1-80.5,80.5-80.5h703.5c14.6,0,26.5-11.8,26.5-26.5c0-14.6-11.8-26.5-26.5-26.5H201.7C128.2,10,68.3,69.8,68.3,143.4l0,0v713.2c0,73.6,59.8,133.4,133.4,133.4h729.9V223.9H201.7C157.4,223.9,121.3,187.8,121.3,143.4z M878.7,937.1h-677c-44.4,0-80.5-36.1-80.5-80.5V249.7c22.4,17,50.3,27.1,80.5,27.1h677V937.1z"/><path d="M905.2,115H207.6c-14.6,0-26.5,11.8-26.5,26.5s11.8,26.5,26.5,26.5h697.6c14.6,0,26.5-11.8,26.5-26.5S919.8,115,905.2,115z"/></g>
</svg>