<?xml version="1.0" encoding="utf-8"?>
<!-- Svg Vector Icons : http://www.onlinewebfonts.com/icon -->
<!DOCTYPE svg PUBLIC "-//W3C//DTD SVG 1.1//EN" "http://www.w3.org/Graphics/SVG/1.1/DTD/svg11.dtd">
<svg version="1.1" xmlns="http://www.w3.org/2000/svg" xmlns:xlink="http://www.w3.org/1999/xlink" x="0px" y="0px" viewBox="0 0 1000 1000" enable-background="new 0 0 1000 1000" xml:space="preserve">
<metadata> Svg Vector Icons : http://www.onlinewebfonts.com/icon </metadata>
<g><path d="M429.9,548.2L229.5,388.6l-88.8,72.3l346.5,357.8c59.9-154.9,248.9-458,479.7-673.3l-21.2-49.6C694.3,252.3,512,449.1,429.9,548.2L429.9,548.2z M979.6,399.2h-49.7c7.6,32.4,11.6,66.1,11.6,100.8c0,243.8-197.7,441.5-441.5,441.5C256.1,941.5,58.5,743.8,58.5,500C58.5,256.2,256.2,58.5,500,58.5c59.4,0,116,11.7,167.7,33v-52C614.1,19.9,557.8,10,500,10c-66.1,0-130.3,13-190.8,38.5c-58.4,24.7-110.7,60-155.7,105c-45,45-80.3,97.4-105,155.7C23,369.7,10,433.9,10,500c0,66.1,13,130.3,38.5,190.8c24.7,58.4,60,110.8,105,155.7c45,45,97.4,80.3,155.7,105C369.7,977,433.9,990,500,990c66.1,0,130.3-13,190.8-38.5c58.4-24.7,110.8-60,155.7-105s80.3-97.4,105-155.7C977,630.3,990,566.1,990,500C990,465.8,986.5,432.1,979.6,399.2L979.6,399.2z"/></g>
</svg>