<?xml version="1.0" encoding="utf-8"?>
<!-- Svg Vector Icons : http://www.onlinewebfonts.com/icon -->
<!DOCTYPE svg PUBLIC "-//W3C//DTD SVG 1.1//EN" "http://www.w3.org/Graphics/SVG/1.1/DTD/svg11.dtd">
<svg version="1.1" xmlns="http://www.w3.org/2000/svg" xmlns:xlink="http://www.w3.org/1999/xlink" x="0px" y="0px" viewBox="0 0 1000 1000" enable-background="new 0 0 1000 1000" xml:space="preserve">
<metadata> Svg Vector Icons : http://www.onlinewebfonts.com/icon </metadata>
<g><path d="M806.3,990H193.8c-67.7,0-122.5-54.8-122.5-122.5V255c0-67.7,54.8-122.5,122.5-122.5h91.9V71.3h82.5C394.6,34.8,443.5,10,500,10s105.4,24.8,131.9,61.3h82.5v61.3h91.9c67.7,0,122.5,54.8,122.5,122.5v612.5C928.8,935.2,873.9,990,806.3,990z M653.1,132.5H585c0-33.8-38.1-61.3-85-61.3c-47,0-85,27.4-85,61.3h-68.1V255h306.3V132.5z M867.5,255c0-33.8-27.4-61.3-61.3-61.3h-91.9v122.5H285.6V193.8h-91.9c-33.8,0-61.3,27.4-61.3,61.3v612.5c0,33.8,27.4,61.3,61.3,61.3h612.5c33.8,0,61.3-27.4,61.3-61.3V255z M714.4,806.3H285.6c-16.9,0-30.6-13.7-30.6-30.6c0-16.9,13.7-30.6,30.6-30.6h428.8c16.9,0,30.6,13.7,30.6,30.6C745,792.5,731.3,806.3,714.4,806.3z M714.4,653.1H285.6c-16.9,0-30.6-13.7-30.6-30.6c0-16.9,13.7-30.6,30.6-30.6h428.8c16.9,0,30.6,13.7,30.6,30.6C745,639.4,731.3,653.1,714.4,653.1z M714.4,500H285.6c-16.9,0-30.6-13.7-30.6-30.6c0-16.9,13.7-30.6,30.6-30.6h428.8c16.9,0,30.6,13.7,30.6,30.6C745,486.3,731.3,500,714.4,500z"/></g>
</svg>